<svg viewBox="0 0 64 64" xmlns="http://www.w3.org/2000/svg"><circle cx="37.5" cy="41.5" fill="#eaeaea" r="21.5"/><circle cx="40" cy="48" fill="none" r="2" stroke="#4c241d" stroke-linecap="round" stroke-linejoin="round" stroke-width="2"/><circle cx="48" cy="52" fill="#4c241d" r="1"/><circle cx="30" cy="48" fill="#4c241d" r="1"/><g stroke="#4c241d" stroke-linecap="round" stroke-linejoin="round" stroke-width="2"><path d="m9 11h45v27h-45z" fill="#9dc1e4"/><path d="m54 11h-1.368l-43.632 24.224v2.776h1.368l43.632-24.224z" fill="#e66353"/><path d="m10.368 11h-1.368v2.776l43.632 24.224h1.368v-2.776z" fill="#e66353"/><path d="m54 22h-20v-11h-5v11h-20v5h20v11h5v-11h20z" fill="#e66353"/><path d="m12 38h4v22h-4z" fill="#bf7e68"/><path d="m14 5a2 2 0 0 1 2 2v4a0 0 0 0 1 0 0h-4a0 0 0 0 1 0 0v-4a2 2 0 0 1 2-2z" fill="#bf7e68"/><path d="m14 60h21" fill="none"/><path d="m40 60h7" fill="none"/></g></svg>